<svg width="40" height="40" viewBox="0 0 40 40" fill="none" xmlns="http://www.w3.org/2000/svg">
<g clip-path="url(#clip0_11229_10349)">
<rect width="40" height="40" rx="20" fill="white"/>
<path d="M28.5105 28.5H18.5105V14.9662L27.1571 19.703L28.5105 28.5Z" fill="#2F2E41"/>
<path d="M20.3579 26.1114C23.9436 26.1114 26.8503 23.2046 26.8503 19.619C26.8503 16.0333 23.9436 13.1266 20.3579 13.1266C16.7722 13.1266 13.8655 16.0333 13.8655 19.619C13.8655 23.2046 16.7722 26.1114 20.3579 26.1114Z" fill="#FFB6B6"/>
<path d="M16.6308 27.0714L16.3375 24.1065L22.1947 23.0113L25.6534 31.4323L19.6383 38.3496L15.3526 29.9286L16.6308 27.0714Z" fill="#FFB6B6"/>
<path d="M34.3639 33.9165C34.291 33.9925 34.2165 34.0677 34.1421 34.1421C33.906 34.3782 33.6654 34.6075 33.4195 34.8301C29.7353 38.1714 25.0083 40 20 40C15.3827 40 11.0045 38.4459 7.46241 35.585C7.46015 35.5835 7.45865 35.582 7.45639 35.5797C7.34887 35.4932 7.24286 35.4053 7.13684 35.3158C7.15564 35.2617 7.17594 35.2083 7.19624 35.1556C8.33534 32.188 10.585 30.7361 11.9504 30.1007C12.6271 29.7857 13.0865 29.6707 13.0865 29.6707L14.6895 26.7835L15.818 28.8887L16.6496 30.4406L20.0617 36.8068L23.0053 29.4774L23.9173 27.2053L24.1511 26.6233L25.2632 27.4887L26.3158 28.3075L28.4353 28.7752L30.1549 29.1549L32.4902 29.6707C33.4346 30.4398 34.009 31.903 34.3301 33.7211C34.3421 33.7857 34.3534 33.8511 34.3639 33.9165Z" fill="#6C63FF"/>
<path d="M16.9428 12.2408C17.7337 10.9124 19.1861 10.001 20.7263 9.86663C22.2664 9.73229 23.8547 10.3785 24.8636 11.55C25.4648 12.248 25.859 13.1029 26.445 13.8138C27.7061 15.3435 29.8565 16.238 30.4074 18.1424C30.6478 18.9735 30.528 19.8607 30.4063 20.7172C30.3021 21.4514 30.1978 22.1855 30.0936 22.9197C30.0124 23.491 29.9346 24.0933 30.1489 24.6291C30.4002 25.2577 31.0017 25.6695 31.3906 26.2237C32.0523 27.1666 32.0039 28.5472 31.2778 29.4416C30.9629 29.8294 30.5454 30.1219 30.2153 30.4969C29.8852 30.8719 29.6403 31.3845 29.7786 31.8646C30.0434 32.7843 31.4857 33.0048 31.6439 33.9487C31.7247 34.4312 31.3914 34.9131 30.9547 35.1338C30.518 35.3545 30.0039 35.3609 29.5182 35.3018C27.6721 35.0775 25.9628 33.9239 25.0639 32.2959C24.1651 30.6678 24.0996 28.6067 24.8934 26.9249C25.5453 25.5436 26.7569 24.323 26.7437 22.7956C26.7365 21.9635 26.3549 21.1864 25.9817 20.4426C25.2178 18.9204 24.454 17.3981 23.6901 15.8759C23.2809 15.0605 22.8061 14.1818 21.9637 13.8315C21.3127 13.5608 20.574 13.6658 19.8777 13.7765C19.1813 13.8872 18.4437 13.995 17.7907 13.729C17.1378 13.463 16.6444 12.6726 16.9555 12.0399" fill="#2F2E41"/>
<path d="M18.0806 12.3102C16.8262 11.8973 15.4191 12.5601 14.5699 13.5714C13.7207 14.5827 13.3088 15.8802 12.9164 17.1411C12.6916 17.8633 12.4668 18.5855 12.2421 19.3078C12.0306 19.9872 11.8192 20.6666 11.6077 21.346C11.359 22.1452 11.1083 22.9942 11.3124 23.8059C11.46 24.3927 11.8397 24.9255 11.8478 25.5305C11.8564 26.1625 11.4606 26.7174 11.1137 27.2458C10.7669 27.7742 10.4413 28.4019 10.6065 29.012C10.8579 29.94 12.148 30.45 12.0773 31.4088C12.0537 31.7288 11.8687 32.0248 11.872 32.3456C11.8763 32.7538 12.1959 33.1065 12.5703 33.2692C12.9448 33.4318 13.366 33.4406 13.7741 33.4335C15.0261 33.4114 16.2758 33.2628 17.498 32.9904C17.9682 32.8856 18.4464 32.7571 18.8378 32.4762C19.2293 32.1954 19.5213 31.73 19.4703 31.251C19.3909 30.5045 18.5883 30.081 18.1832 29.4489C17.7854 28.828 17.7946 28.0414 17.6231 27.3242C17.3873 26.3386 16.805 25.4782 16.3679 24.5639C14.7245 21.1266 15.2998 16.7453 17.7748 13.8488C17.9937 13.5927 18.2327 13.335 18.324 13.0108C18.4153 12.6865 18.2976 12.2734 17.9804 12.16" fill="#2F2E41"/>
<path d="M34.1421 5.85789C30.3647 2.08045 25.3421 0 20 0C14.6579 0 9.63534 2.08045 5.85789 5.85789C2.08045 9.63533 0 14.6579 0 20C0 24.8759 1.73308 29.4857 4.90902 33.1256C5.21203 33.4737 5.52857 33.8128 5.85789 34.1421C5.93534 34.2195 6.01353 34.297 6.09248 34.3722C6.30301 34.5759 6.51729 34.7752 6.73534 34.9684C6.86767 35.0865 7.0015 35.2023 7.13684 35.3158C7.24286 35.4053 7.34887 35.4932 7.45639 35.5797C7.45865 35.582 7.46015 35.5835 7.46241 35.585C11.0045 38.4459 15.3827 40 20 40C25.0083 40 29.7353 38.1714 33.4195 34.8301C33.6654 34.6075 33.906 34.3782 34.1421 34.1421C34.2165 34.0677 34.291 33.9925 34.3639 33.9165C34.5669 33.7075 34.7639 33.4947 34.9564 33.2789C38.2173 29.6158 40 24.9451 40 20C40 14.6579 37.9195 9.63533 34.1421 5.85789ZM34.9075 33.0917C34.7195 33.3053 34.5271 33.5158 34.3301 33.7211C34.0233 34.0406 33.7068 34.3504 33.3797 34.6489C33.2556 34.7632 33.1301 34.8744 33.003 34.985C31.7195 36.1015 30.291 37.0549 28.7504 37.8143C28.2098 38.0812 27.6556 38.3241 27.0887 38.5414C24.8865 39.3865 22.4962 39.8496 20 39.8496C17.591 39.8496 15.2812 39.418 13.1436 38.6286C12.2662 38.3053 11.418 37.9211 10.6038 37.4812C10.4842 37.4165 10.3654 37.3511 10.2474 37.2842C9.62632 36.9323 9.02556 36.5481 8.44887 36.1331C8.01805 35.8241 7.6 35.4985 7.19624 35.1556C7.05489 35.0361 6.91504 34.915 6.77744 34.791C6.55338 34.5917 6.33383 34.3865 6.11955 34.1759C5.71353 33.7782 5.32557 33.3639 4.95489 32.9331C1.96166 29.4564 0.150376 24.9361 0.150376 20C0.150376 9.05489 9.05489 0.150376 20 0.150376C30.9451 0.150376 39.8496 9.05489 39.8496 20C39.8496 25.012 37.9827 29.5955 34.9075 33.0917Z" fill="#3F3D56"/>
</g>
<defs>
<clipPath id="clip0_11229_10349">
<rect width="40" height="40" rx="20" fill="white"/>
</clipPath>
</defs>
</svg>
