<svg width="81" height="13" viewBox="0 0 81 13" fill="none" xmlns="http://www.w3.org/2000/svg">
<path d="M9.89062 6.1875V10.5312C9.72917 10.7448 9.47656 10.9792 9.13281 11.2344C8.79427 11.4844 8.34375 11.7005 7.78125 11.8828C7.21875 12.0651 6.51823 12.1562 5.67969 12.1562C4.96615 12.1562 4.3125 12.0365 3.71875 11.7969C3.125 11.5521 2.61198 11.1953 2.17969 10.7266C1.7526 10.2578 1.42188 9.6875 1.1875 9.01562C0.953125 8.33854 0.835938 7.56771 0.835938 6.70312V5.91406C0.835938 5.05469 0.942708 4.28906 1.15625 3.61719C1.375 2.9401 1.6875 2.36719 2.09375 1.89844C2.5 1.42969 2.98958 1.07552 3.5625 0.835938C4.14062 0.591146 4.79427 0.46875 5.52344 0.46875C6.45573 0.46875 7.22656 0.625 7.83594 0.9375C8.45052 1.24479 8.92448 1.67188 9.25781 2.21875C9.59115 2.76562 9.80208 3.39062 9.89062 4.09375H7.96875C7.90625 3.69792 7.78385 3.34375 7.60156 3.03125C7.42448 2.71875 7.16927 2.47396 6.83594 2.29688C6.50781 2.11458 6.08073 2.02344 5.55469 2.02344C5.10156 2.02344 4.70312 2.10938 4.35938 2.28125C4.01562 2.45312 3.72917 2.70573 3.5 3.03906C3.27604 3.3724 3.10677 3.77865 2.99219 4.25781C2.8776 4.73698 2.82031 5.28385 2.82031 5.89844V6.70312C2.82031 7.32812 2.88542 7.88281 3.01562 8.36719C3.15104 8.85156 3.34375 9.26042 3.59375 9.59375C3.84896 9.92708 4.15885 10.1797 4.52344 10.3516C4.88802 10.5182 5.29948 10.6016 5.75781 10.6016C6.20573 10.6016 6.57292 10.5651 6.85938 10.4922C7.14583 10.4141 7.3724 10.3229 7.53906 10.2188C7.71094 10.1094 7.84375 10.0052 7.9375 9.90625V7.64844H5.57031V6.1875H9.89062ZM13.8906 0V12H12V0H13.8906ZM15.5938 7.86719V7.6875C15.5938 7.07812 15.6823 6.51302 15.8594 5.99219C16.0365 5.46615 16.2917 5.01042 16.625 4.625C16.9635 4.23438 17.375 3.93229 17.8594 3.71875C18.349 3.5 18.901 3.39062 19.5156 3.39062C20.1354 3.39062 20.6875 3.5 21.1719 3.71875C21.6615 3.93229 22.0755 4.23438 22.4141 4.625C22.7526 5.01042 23.0104 5.46615 23.1875 5.99219C23.3646 6.51302 23.4531 7.07812 23.4531 7.6875V7.86719C23.4531 8.47656 23.3646 9.04167 23.1875 9.5625C23.0104 10.0833 22.7526 10.5391 22.4141 10.9297C22.0755 11.3151 21.6641 11.6172 21.1797 11.8359C20.6953 12.0495 20.1458 12.1562 19.5312 12.1562C18.9115 12.1562 18.3568 12.0495 17.8672 11.8359C17.3828 11.6172 16.9714 11.3151 16.6328 10.9297C16.2943 10.5391 16.0365 10.0833 15.8594 9.5625C15.6823 9.04167 15.5938 8.47656 15.5938 7.86719ZM17.4766 7.6875V7.86719C17.4766 8.2474 17.5156 8.60677 17.5938 8.94531C17.6719 9.28385 17.7943 9.58073 17.9609 9.83594C18.1276 10.0911 18.3411 10.2917 18.6016 10.4375C18.862 10.5833 19.1719 10.6562 19.5312 10.6562C19.8802 10.6562 20.1823 10.5833 20.4375 10.4375C20.6979 10.2917 20.9115 10.0911 21.0781 9.83594C21.2448 9.58073 21.3672 9.28385 21.4453 8.94531C21.5286 8.60677 21.5703 8.2474 21.5703 7.86719V7.6875C21.5703 7.3125 21.5286 6.95833 21.4453 6.625C21.3672 6.28646 21.2422 5.98698 21.0703 5.72656C20.9036 5.46615 20.6901 5.26302 20.4297 5.11719C20.1745 4.96615 19.8698 4.89062 19.5156 4.89062C19.1615 4.89062 18.8542 4.96615 18.5938 5.11719C18.3385 5.26302 18.1276 5.46615 17.9609 5.72656C17.7943 5.98698 17.6719 6.28646 17.5938 6.625C17.5156 6.95833 17.4766 7.3125 17.4766 7.6875ZM25.0391 0H26.9219V10.1953L26.7422 12H25.0391V0ZM32.4375 7.69531V7.85938C32.4375 8.48438 32.3672 9.0599 32.2266 9.58594C32.0911 10.1068 31.8828 10.5599 31.6016 10.9453C31.3255 11.3307 30.9818 11.6302 30.5703 11.8438C30.1641 12.0521 29.6927 12.1562 29.1562 12.1562C28.6302 12.1562 28.1719 12.0573 27.7812 11.8594C27.3906 11.6615 27.0625 11.3802 26.7969 11.0156C26.5365 10.651 26.3255 10.2161 26.1641 9.71094C26.0026 9.20573 25.888 8.64844 25.8203 8.03906V7.51562C25.888 6.90104 26.0026 6.34375 26.1641 5.84375C26.3255 5.33854 26.5365 4.90365 26.7969 4.53906C27.0625 4.16927 27.388 3.88542 27.7734 3.6875C28.1641 3.48958 28.6198 3.39062 29.1406 3.39062C29.6823 3.39062 30.1589 3.49479 30.5703 3.70312C30.987 3.91146 31.3333 4.20833 31.6094 4.59375C31.8854 4.97396 32.0911 5.42708 32.2266 5.95312C32.3672 6.47917 32.4375 7.0599 32.4375 7.69531ZM30.5547 7.85938V7.69531C30.5547 7.3151 30.5234 6.95833 30.4609 6.625C30.3984 6.28646 30.2943 5.98958 30.1484 5.73438C30.0078 5.47917 29.8151 5.27865 29.5703 5.13281C29.3307 4.98177 29.0312 4.90625 28.6719 4.90625C28.3385 4.90625 28.0521 4.96354 27.8125 5.07812C27.5729 5.19271 27.3724 5.34896 27.2109 5.54688C27.0495 5.74479 26.9219 5.97396 26.8281 6.23438C26.7396 6.49479 26.6797 6.77604 26.6484 7.07812V8.49219C26.6953 8.88281 26.7943 9.24219 26.9453 9.57031C27.1016 9.89323 27.3203 10.1536 27.6016 10.3516C27.8828 10.5443 28.2448 10.6406 28.6875 10.6406C29.0365 10.6406 29.3307 10.5703 29.5703 10.4297C29.8099 10.2891 30 10.0938 30.1406 9.84375C30.2865 9.58854 30.3906 9.29167 30.4531 8.95312C30.5208 8.61458 30.5547 8.25 30.5547 7.85938ZM39.1172 10.0078V3.54688H41.0078V12H39.2266L39.1172 10.0078ZM39.3828 8.25L40.0156 8.23438C40.0156 8.80208 39.9531 9.32552 39.8281 9.80469C39.7031 10.2786 39.5104 10.6927 39.25 11.0469C38.9896 11.3958 38.6562 11.6693 38.25 11.8672C37.8438 12.0599 37.3568 12.1562 36.7891 12.1562C36.3776 12.1562 36 12.0964 35.6562 11.9766C35.3125 11.8568 35.0156 11.6719 34.7656 11.4219C34.5208 11.1719 34.3307 10.8464 34.1953 10.4453C34.0599 10.0443 33.9922 9.5651 33.9922 9.00781V3.54688H35.875V9.02344C35.875 9.33073 35.9115 9.58854 35.9844 9.79688C36.0573 10 36.1562 10.1641 36.2812 10.2891C36.4062 10.4141 36.5521 10.5026 36.7188 10.5547C36.8854 10.6068 37.0625 10.6328 37.25 10.6328C37.7865 10.6328 38.2083 10.5286 38.5156 10.3203C38.8281 10.1068 39.0495 9.82031 39.1797 9.46094C39.3151 9.10156 39.3828 8.69792 39.3828 8.25ZM47.6797 9.71094C47.6797 9.52344 47.6328 9.35417 47.5391 9.20312C47.4453 9.04688 47.2656 8.90625 47 8.78125C46.7396 8.65625 46.3542 8.54167 45.8438 8.4375C45.3958 8.33854 44.9844 8.22135 44.6094 8.08594C44.2396 7.94531 43.9219 7.77604 43.6562 7.57812C43.3906 7.38021 43.1849 7.14583 43.0391 6.875C42.8932 6.60417 42.8203 6.29167 42.8203 5.9375C42.8203 5.59375 42.8958 5.26823 43.0469 4.96094C43.1979 4.65365 43.4141 4.38281 43.6953 4.14844C43.9766 3.91406 44.3177 3.72917 44.7188 3.59375C45.125 3.45833 45.5781 3.39062 46.0781 3.39062C46.7865 3.39062 47.3932 3.51042 47.8984 3.75C48.4089 3.98438 48.7995 4.30469 49.0703 4.71094C49.3411 5.11198 49.4766 5.5651 49.4766 6.07031H47.5938C47.5938 5.84635 47.5365 5.63802 47.4219 5.44531C47.3125 5.2474 47.1458 5.08854 46.9219 4.96875C46.6979 4.84375 46.4167 4.78125 46.0781 4.78125C45.7552 4.78125 45.487 4.83333 45.2734 4.9375C45.0651 5.03646 44.9089 5.16667 44.8047 5.32812C44.7057 5.48958 44.6562 5.66667 44.6562 5.85938C44.6562 6 44.6823 6.1276 44.7344 6.24219C44.7917 6.35156 44.8854 6.45312 45.0156 6.54688C45.1458 6.63542 45.3229 6.71875 45.5469 6.79688C45.776 6.875 46.0625 6.95052 46.4062 7.02344C47.0521 7.15885 47.6068 7.33333 48.0703 7.54688C48.5391 7.75521 48.8984 8.02604 49.1484 8.35938C49.3984 8.6875 49.5234 9.10417 49.5234 9.60938C49.5234 9.98438 49.4427 10.3281 49.2812 10.6406C49.125 10.9479 48.8958 11.2161 48.5938 11.4453C48.2917 11.6693 47.9297 11.8438 47.5078 11.9688C47.0911 12.0938 46.6224 12.1562 46.1016 12.1562C45.3359 12.1562 44.6875 12.0208 44.1562 11.75C43.625 11.474 43.2214 11.1224 42.9453 10.6953C42.6745 10.263 42.5391 9.8151 42.5391 9.35156H44.3594C44.3802 9.70052 44.4766 9.97917 44.6484 10.1875C44.8255 10.3906 45.0443 10.5391 45.3047 10.6328C45.5703 10.7214 45.8438 10.7656 46.125 10.7656C46.4635 10.7656 46.7474 10.7214 46.9766 10.6328C47.2057 10.5391 47.3802 10.4141 47.5 10.2578C47.6198 10.0964 47.6797 9.91406 47.6797 9.71094ZM62.4688 10.4453V12H56.7578V10.4453H62.4688ZM57.3047 0.625V12H55.3438V0.625H57.3047ZM71.1094 10.4453V12H65.3984V10.4453H71.1094ZM65.9453 0.625V12H63.9844V0.625H65.9453ZM78.8281 8.29688H80.7812C80.7188 9.04167 80.5104 9.70573 80.1562 10.2891C79.8021 10.8672 79.3047 11.3229 78.6641 11.6562C78.0234 11.9896 77.2448 12.1562 76.3281 12.1562C75.625 12.1562 74.9922 12.0312 74.4297 11.7812C73.8672 11.526 73.3854 11.1667 72.9844 10.7031C72.5833 10.2344 72.276 9.66927 72.0625 9.00781C71.8542 8.34635 71.75 7.60677 71.75 6.78906V5.84375C71.75 5.02604 71.8568 4.28646 72.0703 3.625C72.2891 2.96354 72.6016 2.39844 73.0078 1.92969C73.4141 1.45573 73.901 1.09375 74.4688 0.84375C75.0417 0.59375 75.6849 0.46875 76.3984 0.46875C77.3047 0.46875 78.0703 0.635417 78.6953 0.96875C79.3203 1.30208 79.8047 1.76302 80.1484 2.35156C80.4974 2.9401 80.7109 3.61458 80.7891 4.375H78.8359C78.7839 3.88542 78.6693 3.46615 78.4922 3.11719C78.3203 2.76823 78.0651 2.5026 77.7266 2.32031C77.388 2.13281 76.9453 2.03906 76.3984 2.03906C75.9505 2.03906 75.5599 2.1224 75.2266 2.28906C74.8932 2.45573 74.6146 2.70052 74.3906 3.02344C74.1667 3.34635 73.9974 3.74479 73.8828 4.21875C73.7734 4.6875 73.7188 5.22396 73.7188 5.82812V6.78906C73.7188 7.36198 73.7682 7.88281 73.8672 8.35156C73.9714 8.8151 74.1276 9.21354 74.3359 9.54688C74.5495 9.88021 74.8203 10.138 75.1484 10.3203C75.4766 10.5026 75.8698 10.5938 76.3281 10.5938C76.8854 10.5938 77.3359 10.5052 77.6797 10.3281C78.0286 10.151 78.2917 9.89323 78.4688 9.55469C78.651 9.21094 78.7708 8.79167 78.8281 8.29688Z" fill="#808080"/>
</svg>
