<svg width="86" height="20" viewBox="0 0 86 20" fill="none" xmlns="http://www.w3.org/2000/svg">
<path fill-rule="evenodd" clip-rule="evenodd" d="M23.875 6.25C23.875 6.25 23.875 5.73223 24.2411 5.36612C24.2411 5.36612 24.6072 5 25.125 5H38.875C38.875 5 39.3928 5 39.7589 5.36612C39.7589 5.36612 40.125 5.73223 40.125 6.25V16.25C40.125 16.25 40.125 16.7678 39.7589 17.1339C39.7589 17.1339 39.3928 17.5 38.875 17.5H25.125C25.125 17.5 24.6072 17.5 24.2411 17.1339C24.2411 17.1339 23.875 16.7678 23.875 16.25V6.25ZM25.125 6.25V16.25H38.875V6.25H25.125Z" fill="#227420"/>
<path d="M28.25 4.375V16.875C28.25 17.2202 28.5298 17.5 28.875 17.5C29.2202 17.5 29.5 17.2202 29.5 16.875V4.375C29.5 4.11612 29.6831 3.93306 29.6831 3.93306C29.8661 3.75 30.125 3.75 30.125 3.75H33.875C34.1339 3.75 34.3169 3.93306 34.3169 3.93306C34.5 4.11612 34.5 4.375 34.5 4.375V16.875C34.5 17.2202 34.7798 17.5 35.125 17.5C35.4702 17.5 35.75 17.2202 35.75 16.875V4.375C35.75 3.59835 35.2008 3.04917 35.2008 3.04917C34.6517 2.5 33.875 2.5 33.875 2.5H30.125C29.3483 2.5 28.7992 3.04917 28.7992 3.04917C28.25 3.59835 28.25 4.375 28.25 4.375Z" fill="#227420"/>
<path fill-rule="evenodd" clip-rule="evenodd" d="M4.40641 4.40641C4.40641 4.40641 5.68782 3.125 7.5 3.125H12.5C12.5 3.125 14.3122 3.125 15.5936 4.40641C15.5936 4.40641 16.875 5.68782 16.875 7.5V16.875C16.875 16.875 16.875 17.3928 16.5089 17.7589C16.5089 17.7589 16.1428 18.125 15.625 18.125H4.375C4.375 18.125 3.85723 18.125 3.49112 17.7589C3.49112 17.7589 3.125 17.3928 3.125 16.875V7.5C3.125 7.5 3.125 5.68782 4.40641 4.40641ZM7.5 4.375C7.5 4.375 6.20558 4.375 5.29029 5.29029C5.29029 5.29029 4.375 6.20558 4.375 7.5V16.875H15.625V7.5C15.625 7.5 15.625 6.20558 14.7097 5.29029C14.7097 5.29029 13.7944 4.375 12.5 4.375H7.5Z" fill="#227420"/>
<path d="M13.125 11.875V17.5C13.125 17.8452 13.4048 18.125 13.75 18.125C14.0952 18.125 14.375 17.8452 14.375 17.5V11.875C14.375 11.0984 13.8258 10.5492 13.8258 10.5492C13.2766 10 12.5 10 12.5 10H7.5C6.72335 10 6.17418 10.5492 6.17418 10.5492C5.625 11.0984 5.625 11.875 5.625 11.875V17.5C5.625 17.8452 5.90482 18.125 6.25 18.125C6.59518 18.125 6.875 17.8452 6.875 17.5V11.875C6.875 11.6161 7.05806 11.4331 7.05806 11.4331C7.24112 11.25 7.5 11.25 7.5 11.25H12.5C12.7589 11.25 12.9419 11.4331 12.9419 11.4331C13.125 11.6161 13.125 11.875 13.125 11.875Z" fill="#227420"/>
<path d="M11.6919 2.05806C11.875 2.24112 11.875 2.5 11.875 2.5V3.75C11.875 4.09518 12.1548 4.375 12.5 4.375C12.8452 4.375 13.125 4.09518 13.125 3.75V2.5C13.125 1.72335 12.5758 1.17417 12.5758 1.17417C12.0266 0.625 11.25 0.625 11.25 0.625H8.75C7.97335 0.625 7.42418 1.17417 7.42418 1.17417C6.875 1.72335 6.875 2.5 6.875 2.5V3.75C6.875 4.09518 7.15482 4.375 7.5 4.375C7.84518 4.375 8.125 4.09518 8.125 3.75V2.5C8.125 2.24112 8.30806 2.05806 8.30806 2.05806C8.49112 1.875 8.75 1.875 8.75 1.875H11.25C11.5089 1.875 11.6919 2.05806 11.6919 2.05806Z" fill="#227420"/>
<path d="M8.75 7.5H11.25C11.5952 7.5 11.875 7.22018 11.875 6.875C11.875 6.52982 11.5952 6.25 11.25 6.25H8.75C8.40482 6.25 8.125 6.52982 8.125 6.875C8.125 7.22018 8.40482 7.5 8.75 7.5Z" fill="#227420"/>
<path d="M6.25 13.75H13.75C14.0952 13.75 14.375 13.4702 14.375 13.125C14.375 12.7798 14.0952 12.5 13.75 12.5H6.25C5.90482 12.5 5.625 12.7798 5.625 13.125C5.625 13.4702 5.90482 13.75 6.25 13.75Z" fill="#227420"/>
<path d="M11.25 12.5C10.9048 12.5 10.625 12.7798 10.625 13.125V14.375C10.625 14.7202 10.9048 15 11.25 15C11.5952 15 11.875 14.7202 11.875 14.375V13.125C11.875 12.7798 11.5952 12.5 11.25 12.5Z" fill="#227420"/>
<path d="M72.25 11.25H79.75C80.0952 11.25 80.375 10.9702 80.375 10.625C80.375 10.2798 80.0952 10 79.75 10H72.25C71.9048 10 71.625 10.2798 71.625 10.625C71.625 10.9702 71.9048 11.25 72.25 11.25Z" fill="#808080"/>
<path d="M81.625 5.625V7.5C81.625 7.84518 81.9048 8.125 82.25 8.125C82.5952 8.125 82.875 7.84518 82.875 7.5V5.625C82.875 4.33058 81.9597 3.41529 81.9597 3.41529C81.0444 2.5 79.75 2.5 79.75 2.5L72.25 2.5C70.9556 2.5 70.0403 3.41529 70.0403 3.41529C69.125 4.33058 69.125 5.625 69.125 5.625V7.5C69.125 7.84518 69.4048 8.125 69.75 8.125C70.0952 8.125 70.375 7.84518 70.375 7.5V5.625C70.375 4.84835 70.9242 4.29917 70.9242 4.29917C71.4734 3.75 72.25 3.75 72.25 3.75H79.75C80.5267 3.75 81.0758 4.29917 81.0758 4.29917C81.625 4.84835 81.625 5.625 81.625 5.625Z" fill="#808080"/>
<path d="M79.1251 10V13.125C79.1251 13.4702 79.4049 13.75 79.7501 13.75C80.0952 13.75 80.3751 13.4702 80.3751 13.125V10C80.3751 9.43126 80.691 8.95834 80.691 8.95834C81.007 8.48542 81.5325 8.26776 81.5325 8.26776C82.058 8.0501 82.6158 8.16106 82.6158 8.16106C83.1737 8.27202 83.5759 8.67421 83.5759 8.67421C83.9781 9.0764 84.089 9.63424 84.089 9.63424C84.2 10.1921 83.9823 10.7176 83.9823 10.7176C83.7647 11.243 83.2917 11.559 83.2917 11.559C82.8188 11.875 82.2501 11.875 82.2501 11.875C81.9049 11.875 81.6251 12.1549 81.6251 12.5V15.625H70.3751V12.5C70.3751 12.1549 70.0952 11.875 69.7501 11.875C69.1813 11.875 68.7084 11.559 68.7084 11.559C68.2354 11.243 68.0178 10.7176 68.0178 10.7176C67.8001 10.1921 67.9111 9.63424 67.9111 9.63424C68.022 9.07639 68.4242 8.67421 68.4242 8.67421C68.8264 8.27202 69.3843 8.16106 69.3843 8.16106C69.9421 8.0501 70.4676 8.26776 70.4676 8.26776C70.9931 8.48542 71.3091 8.95834 71.3091 8.95834C71.6251 9.43126 71.6251 10 71.6251 10V13.125C71.6251 13.4702 71.9049 13.75 72.2501 13.75C72.5952 13.75 72.8751 13.4702 72.8751 13.125V10C72.8751 9.05208 72.3484 8.26388 72.3484 8.26388C71.8217 7.47568 70.9459 7.11291 70.9459 7.11291C70.0701 6.75014 69.1404 6.93508 69.1404 6.93508C68.2107 7.12002 67.5403 7.79033 67.5403 7.79033C66.87 8.46063 66.6851 9.39038 66.6851 9.39038C66.5002 10.3201 66.8629 11.1959 66.8629 11.1959C67.2257 12.0717 68.0139 12.5984 68.0139 12.5984C68.5346 12.9463 69.1251 13.0644 69.1251 13.0644V15.625C69.1251 16.1428 69.4912 16.5089 69.4912 16.5089C69.8573 16.875 70.3751 16.875 70.3751 16.875H81.6251C82.1428 16.875 82.5089 16.5089 82.5089 16.5089C82.8751 16.1428 82.8751 15.625 82.8751 15.625V13.0644C83.4655 12.9463 83.9862 12.5984 83.9862 12.5984C84.7744 12.0717 85.1372 11.1959 85.1372 11.1959C85.4999 10.3201 85.315 9.39038 85.315 9.39038C85.1301 8.46063 84.4598 7.79033 84.4598 7.79033C83.7895 7.12002 82.8597 6.93508 82.8597 6.93508C81.93 6.75014 81.0542 7.11291 81.0542 7.11291C80.1784 7.47568 79.6517 8.26388 79.6517 8.26388C79.1251 9.05208 79.1251 10 79.1251 10Z" fill="#808080"/>
<path d="M62.1407 7.78897V4.03897C62.1407 3.69379 61.8608 3.41397 61.5157 3.41397C61.1705 3.41397 60.8907 3.69379 60.8907 4.03897V7.16397H57.7657C57.4205 7.16397 57.1407 7.44379 57.1407 7.78897C57.1407 8.13415 57.4205 8.41397 57.7657 8.41397H61.5157C61.8608 8.41397 62.1407 8.13415 62.1407 7.78897Z" fill="#808080"/>
<path d="M61.0743 8.23166C61.1915 8.34847 61.3502 8.41397 61.5157 8.41397L61.5165 8.41406C61.6823 8.41382 61.8412 8.34774 61.9582 8.23036C62.075 8.1132 62.1407 7.95441 62.1407 7.78897L62.1406 7.78815C62.1404 7.62238 62.0743 7.46351 61.9569 7.34647L59.3007 4.69804C58.2476 3.64344 56.8697 3.07209 56.8697 3.07209C55.4917 2.50073 54 2.50073 54 2.50073C52.5083 2.50073 51.1303 3.07209 51.1303 3.07209C49.7524 3.64344 48.6984 4.69901 48.6984 4.69901C48.5813 4.81619 48.5156 4.97503 48.5156 5.14063C48.5157 5.30639 48.5817 5.46577 48.699 5.58289C48.8162 5.6999 48.975 5.76563 49.1406 5.76563C49.3064 5.76551 49.4658 5.69954 49.5829 5.58225C50.4611 4.70279 51.6091 4.22676 51.6091 4.22676C52.7572 3.75073 54 3.75073 54 3.75073C55.2428 3.75073 56.3909 4.22676 56.3909 4.22676C57.5389 4.70279 58.4181 5.58322 58.4181 5.58322L61.0743 8.23166Z" fill="#808080"/>
<path d="M45.8594 12.211V15.961C45.8594 16.3061 46.1392 16.586 46.4844 16.586C46.8296 16.586 47.1094 16.3061 47.1094 15.961V12.836H50.2344C50.5796 12.836 50.8594 12.5561 50.8594 12.211C50.8594 11.8658 50.5796 11.586 50.2344 11.586H46.4844C46.1392 11.586 45.8594 11.8658 45.8594 12.211Z" fill="#808080"/>
<path d="M49.5819 14.4168L46.9257 11.7684C46.8085 11.6516 46.6498 11.586 46.4844 11.586L46.4835 11.586C46.3177 11.5862 46.1588 11.6523 46.0418 11.7697C45.925 11.8868 45.8594 12.0455 45.8594 12.211L45.8594 12.2119C45.8596 12.3776 45.9257 12.5365 46.0431 12.6536L48.6993 15.302C49.7524 16.3566 51.1303 16.9279 51.1303 16.9279C52.5083 17.4993 54 17.4993 54 17.4993C55.4917 17.4993 56.8697 16.9279 56.8697 16.9279C58.2476 16.3566 59.3016 15.301 59.3016 15.301C59.4187 15.1838 59.4844 15.025 59.4844 14.8594C59.4843 14.6936 59.4183 14.5343 59.301 14.4171C59.1838 14.3001 59.025 14.2344 58.8594 14.2344C58.6936 14.2345 58.5342 14.3005 58.4171 14.4178C57.5389 15.2972 56.3909 15.7733 56.3909 15.7733C55.2428 16.2493 54 16.2493 54 16.2493C52.7572 16.2493 51.6091 15.7733 51.6091 15.7733C50.4611 15.2972 49.5819 14.4168 49.5819 14.4168Z" fill="#808080"/>
</svg>
