<svg width="89" height="20" viewBox="0 0 89 20" fill="none" xmlns="http://www.w3.org/2000/svg">
<path fill-rule="evenodd" clip-rule="evenodd" d="M24.875 6.25C24.875 6.25 24.875 5.73223 25.2411 5.36612C25.2411 5.36612 25.6072 5 26.125 5H39.875C39.875 5 40.3928 5 40.7589 5.36612C40.7589 5.36612 41.125 5.73223 41.125 6.25V16.25C41.125 16.25 41.125 16.7678 40.7589 17.1339C40.7589 17.1339 40.3928 17.5 39.875 17.5H26.125C26.125 17.5 25.6072 17.5 25.2411 17.1339C25.2411 17.1339 24.875 16.7678 24.875 16.25V6.25ZM26.125 6.25V16.25H39.875V6.25H26.125Z" fill="#227420"/>
<path d="M29.25 4.375V16.875C29.25 17.2202 29.5298 17.5 29.875 17.5C30.2202 17.5 30.5 17.2202 30.5 16.875V4.375C30.5 4.11612 30.6831 3.93306 30.6831 3.93306C30.8661 3.75 31.125 3.75 31.125 3.75H34.875C35.1339 3.75 35.3169 3.93306 35.3169 3.93306C35.5 4.11612 35.5 4.375 35.5 4.375V16.875C35.5 17.2202 35.7798 17.5 36.125 17.5C36.4702 17.5 36.75 17.2202 36.75 16.875V4.375C36.75 3.59835 36.2008 3.04917 36.2008 3.04917C35.6517 2.5 34.875 2.5 34.875 2.5H31.125C30.3483 2.5 29.7992 3.04917 29.7992 3.04917C29.25 3.59835 29.25 4.375 29.25 4.375Z" fill="#227420"/>
<path fill-rule="evenodd" clip-rule="evenodd" d="M4.40641 4.40641C4.40641 4.40641 5.68782 3.125 7.5 3.125H12.5C12.5 3.125 14.3122 3.125 15.5936 4.40641C15.5936 4.40641 16.875 5.68782 16.875 7.5V16.875C16.875 16.875 16.875 17.3928 16.5089 17.7589C16.5089 17.7589 16.1428 18.125 15.625 18.125H4.375C4.375 18.125 3.85723 18.125 3.49112 17.7589C3.49112 17.7589 3.125 17.3928 3.125 16.875V7.5C3.125 7.5 3.125 5.68782 4.40641 4.40641ZM7.5 4.375C7.5 4.375 6.20558 4.375 5.29029 5.29029C5.29029 5.29029 4.375 6.20558 4.375 7.5V16.875H15.625V7.5C15.625 7.5 15.625 6.20558 14.7097 5.29029C14.7097 5.29029 13.7944 4.375 12.5 4.375H7.5Z" fill="#227420"/>
<path d="M13.125 11.875V17.5C13.125 17.8452 13.4048 18.125 13.75 18.125C14.0952 18.125 14.375 17.8452 14.375 17.5V11.875C14.375 11.0984 13.8258 10.5492 13.8258 10.5492C13.2766 10 12.5 10 12.5 10H7.5C6.72335 10 6.17418 10.5492 6.17418 10.5492C5.625 11.0984 5.625 11.875 5.625 11.875V17.5C5.625 17.8452 5.90482 18.125 6.25 18.125C6.59518 18.125 6.875 17.8452 6.875 17.5V11.875C6.875 11.6161 7.05806 11.4331 7.05806 11.4331C7.24112 11.25 7.5 11.25 7.5 11.25H12.5C12.7589 11.25 12.9419 11.4331 12.9419 11.4331C13.125 11.6161 13.125 11.875 13.125 11.875Z" fill="#227420"/>
<path d="M11.6919 2.05806C11.875 2.24112 11.875 2.5 11.875 2.5V3.75C11.875 4.09518 12.1548 4.375 12.5 4.375C12.8452 4.375 13.125 4.09518 13.125 3.75V2.5C13.125 1.72335 12.5758 1.17417 12.5758 1.17417C12.0266 0.625 11.25 0.625 11.25 0.625H8.75C7.97335 0.625 7.42418 1.17417 7.42418 1.17417C6.875 1.72335 6.875 2.5 6.875 2.5V3.75C6.875 4.09518 7.15482 4.375 7.5 4.375C7.84518 4.375 8.125 4.09518 8.125 3.75V2.5C8.125 2.24112 8.30806 2.05806 8.30806 2.05806C8.49112 1.875 8.75 1.875 8.75 1.875H11.25C11.5089 1.875 11.6919 2.05806 11.6919 2.05806Z" fill="#227420"/>
<path d="M8.75 7.5H11.25C11.5952 7.5 11.875 7.22018 11.875 6.875C11.875 6.52982 11.5952 6.25 11.25 6.25H8.75C8.40482 6.25 8.125 6.52982 8.125 6.875C8.125 7.22018 8.40482 7.5 8.75 7.5Z" fill="#227420"/>
<path d="M6.25 13.75H13.75C14.0952 13.75 14.375 13.4702 14.375 13.125C14.375 12.7798 14.0952 12.5 13.75 12.5H6.25C5.90482 12.5 5.625 12.7798 5.625 13.125C5.625 13.4702 5.90482 13.75 6.25 13.75Z" fill="#227420"/>
<path d="M11.25 12.5C10.9048 12.5 10.625 12.7798 10.625 13.125V14.375C10.625 14.7202 10.9048 15 11.25 15C11.5952 15 11.875 14.7202 11.875 14.375V13.125C11.875 12.7798 11.5952 12.5 11.25 12.5Z" fill="#227420"/>
<path d="M75.25 11.25H82.75C83.0952 11.25 83.375 10.9702 83.375 10.625C83.375 10.2798 83.0952 10 82.75 10H75.25C74.9048 10 74.625 10.2798 74.625 10.625C74.625 10.9702 74.9048 11.25 75.25 11.25Z" fill="#227420"/>
<path d="M84.625 5.625V7.5C84.625 7.84518 84.9048 8.125 85.25 8.125C85.5952 8.125 85.875 7.84518 85.875 7.5V5.625C85.875 4.33058 84.9597 3.41529 84.9597 3.41529C84.0444 2.5 82.75 2.5 82.75 2.5L75.25 2.5C73.9556 2.5 73.0403 3.41529 73.0403 3.41529C72.125 4.33058 72.125 5.625 72.125 5.625V7.5C72.125 7.84518 72.4048 8.125 72.75 8.125C73.0952 8.125 73.375 7.84518 73.375 7.5V5.625C73.375 4.84835 73.9242 4.29917 73.9242 4.29917C74.4734 3.75 75.25 3.75 75.25 3.75H82.75C83.5267 3.75 84.0758 4.29917 84.0758 4.29917C84.625 4.84835 84.625 5.625 84.625 5.625Z" fill="#227420"/>
<path d="M82.1251 10V13.125C82.1251 13.4702 82.4049 13.75 82.7501 13.75C83.0952 13.75 83.3751 13.4702 83.3751 13.125V10C83.3751 9.43126 83.691 8.95834 83.691 8.95834C84.007 8.48542 84.5325 8.26776 84.5325 8.26776C85.058 8.0501 85.6158 8.16106 85.6158 8.16106C86.1737 8.27202 86.5759 8.67421 86.5759 8.67421C86.9781 9.0764 87.089 9.63424 87.089 9.63424C87.2 10.1921 86.9823 10.7176 86.9823 10.7176C86.7647 11.243 86.2917 11.559 86.2917 11.559C85.8188 11.875 85.2501 11.875 85.2501 11.875C84.9049 11.875 84.6251 12.1549 84.6251 12.5V15.625H73.3751V12.5C73.3751 12.1549 73.0952 11.875 72.7501 11.875C72.1813 11.875 71.7084 11.559 71.7084 11.559C71.2354 11.243 71.0178 10.7176 71.0178 10.7176C70.8001 10.1921 70.9111 9.63424 70.9111 9.63424C71.022 9.07639 71.4242 8.67421 71.4242 8.67421C71.8264 8.27202 72.3843 8.16106 72.3843 8.16106C72.9421 8.0501 73.4676 8.26776 73.4676 8.26776C73.9931 8.48542 74.3091 8.95834 74.3091 8.95834C74.6251 9.43126 74.6251 10 74.6251 10V13.125C74.6251 13.4702 74.9049 13.75 75.2501 13.75C75.5952 13.75 75.8751 13.4702 75.8751 13.125V10C75.8751 9.05208 75.3484 8.26388 75.3484 8.26388C74.8217 7.47568 73.9459 7.11291 73.9459 7.11291C73.0701 6.75014 72.1404 6.93508 72.1404 6.93508C71.2107 7.12002 70.5403 7.79033 70.5403 7.79033C69.87 8.46063 69.6851 9.39038 69.6851 9.39038C69.5002 10.3201 69.8629 11.1959 69.8629 11.1959C70.2257 12.0717 71.0139 12.5984 71.0139 12.5984C71.5346 12.9463 72.1251 13.0644 72.1251 13.0644V15.625C72.1251 16.1428 72.4912 16.5089 72.4912 16.5089C72.8573 16.875 73.3751 16.875 73.3751 16.875H84.6251C85.1428 16.875 85.5089 16.5089 85.5089 16.5089C85.8751 16.1428 85.8751 15.625 85.8751 15.625V13.0644C86.4655 12.9463 86.9862 12.5984 86.9862 12.5984C87.7744 12.0717 88.1372 11.1959 88.1372 11.1959C88.4999 10.3201 88.315 9.39038 88.315 9.39038C88.1301 8.46063 87.4598 7.79033 87.4598 7.79033C86.7895 7.12002 85.8597 6.93508 85.8597 6.93508C84.93 6.75014 84.0542 7.11291 84.0542 7.11291C83.1784 7.47568 82.6517 8.26388 82.6517 8.26388C82.1251 9.05208 82.1251 10 82.1251 10Z" fill="#227420"/>
<path d="M64.1407 7.78897V4.03897C64.1407 3.69379 63.8608 3.41397 63.5157 3.41397C63.1705 3.41397 62.8907 3.69379 62.8907 4.03897V7.16397H59.7657C59.4205 7.16397 59.1407 7.44379 59.1407 7.78897C59.1407 8.13415 59.4205 8.41397 59.7657 8.41397H63.5157C63.8608 8.41397 64.1407 8.13415 64.1407 7.78897Z" fill="#227420"/>
<path d="M63.0743 8.23166C63.1915 8.34847 63.3502 8.41397 63.5157 8.41397L63.5165 8.41406C63.6823 8.41382 63.8412 8.34774 63.9582 8.23036C64.075 8.1132 64.1407 7.95441 64.1407 7.78897L64.1406 7.78815C64.1404 7.62238 64.0743 7.46351 63.9569 7.34647L61.3007 4.69804C60.2476 3.64344 58.8697 3.07209 58.8697 3.07209C57.4917 2.50073 56 2.50073 56 2.50073C54.5083 2.50073 53.1303 3.07209 53.1303 3.07209C51.7524 3.64344 50.6984 4.69901 50.6984 4.69901C50.5813 4.81619 50.5156 4.97503 50.5156 5.14063C50.5157 5.30639 50.5817 5.46577 50.699 5.58289C50.8162 5.6999 50.975 5.76563 51.1406 5.76563C51.3064 5.76551 51.4658 5.69954 51.5829 5.58225C52.4611 4.70279 53.6091 4.22676 53.6091 4.22676C54.7572 3.75073 56 3.75073 56 3.75073C57.2428 3.75073 58.3909 4.22676 58.3909 4.22676C59.5389 4.70279 60.4181 5.58322 60.4181 5.58322L63.0743 8.23166Z" fill="#227420"/>
<path d="M47.8594 12.211V15.961C47.8594 16.3061 48.1392 16.586 48.4844 16.586C48.8296 16.586 49.1094 16.3061 49.1094 15.961V12.836H52.2344C52.5796 12.836 52.8594 12.5561 52.8594 12.211C52.8594 11.8658 52.5796 11.586 52.2344 11.586H48.4844C48.1392 11.586 47.8594 11.8658 47.8594 12.211Z" fill="#227420"/>
<path d="M51.5819 14.4168L48.9257 11.7684C48.8085 11.6516 48.6498 11.586 48.4844 11.586L48.4835 11.586C48.3177 11.5862 48.1588 11.6523 48.0418 11.7697C47.925 11.8868 47.8594 12.0455 47.8594 12.211L47.8594 12.2119C47.8596 12.3776 47.9257 12.5365 48.0431 12.6536L50.6993 15.302C51.7524 16.3566 53.1303 16.9279 53.1303 16.9279C54.5083 17.4993 56 17.4993 56 17.4993C57.4917 17.4993 58.8697 16.9279 58.8697 16.9279C60.2476 16.3566 61.3016 15.301 61.3016 15.301C61.4187 15.1838 61.4844 15.025 61.4844 14.8594C61.4843 14.6936 61.4183 14.5343 61.301 14.4171C61.1838 14.3001 61.025 14.2344 60.8594 14.2344C60.6936 14.2345 60.5342 14.3005 60.4171 14.4178C59.5389 15.2972 58.3909 15.7733 58.3909 15.7733C57.2428 16.2493 56 16.2493 56 16.2493C54.7572 16.2493 53.6091 15.7733 53.6091 15.7733C52.4611 15.2972 51.5819 14.4168 51.5819 14.4168Z" fill="#227420"/>
</svg>
