<svg width="43" height="50" viewBox="0 0 43 50" fill="none" xmlns="http://www.w3.org/2000/svg">
<path fill-rule="evenodd" clip-rule="evenodd" d="M2.09951 5.27778C0.770186 7.04352 0 9.14009 0 11.3889V38.6111C0 44.901 6.02536 50 13.458 50H29.542C36.9746 50 43 44.901 43 38.6111V11.3889C43 9.14009 42.2298 7.04352 40.9005 5.27778C40.5179 5.78595 40.089 6.26673 39.6189 6.71585C40.5187 8.10256 41.0305 9.69514 41.0305 11.3889V38.6111C41.0305 43.9805 35.8869 48.3333 29.542 48.3333H13.458C7.11306 48.3333 1.96947 43.9805 1.96947 38.6111V11.3889C1.96947 9.69514 2.48127 8.10256 3.38115 6.71585C2.91098 6.26673 2.48209 5.78595 2.09951 5.27778ZM38.4777 5.27778C36.3715 3.07504 33.1511 1.66667 29.542 1.66667H13.458C9.84888 1.66667 6.62845 3.07504 4.52228 5.27778C4.09373 4.82959 3.71132 4.3485 3.38115 3.83971C5.84672 1.48455 9.4475 0 13.458 0H29.542C33.5525 0 37.1533 1.48455 39.6189 3.83971C39.2887 4.3485 38.9063 4.82958 38.4777 5.27778Z" fill="white"/>
<path d="M21.6641 19C18.7931 19.0058 16.0414 20.1219 14.0113 22.1038C11.9811 24.0858 10.838 26.7722 10.832 29.5751C10.832 32.2189 12.2537 35.6448 14.6233 38.7182C16.9928 41.7916 19.6444 43.6753 21.6641 43.6753C23.6838 43.6753 26.3128 41.8247 28.7049 38.7182C31.097 35.6118 32.4962 32.2189 32.4962 29.5751C32.4902 26.7722 31.347 24.0858 29.3169 22.1038C27.2868 20.1219 24.5351 19.0058 21.6641 19ZM14.4427 30.0158V29.5751C14.4427 29.2246 14.5854 28.8883 14.8393 28.6404C15.0932 28.3925 15.4376 28.2532 15.7967 28.2532C16.874 28.2532 17.9072 28.6711 18.669 29.4148C19.4308 30.1585 19.8587 31.1672 19.8587 32.2189V32.6596C19.8587 33.0101 19.7161 33.3464 19.4622 33.5943C19.2082 33.8422 18.8638 33.9814 18.5047 33.9814C17.4274 33.9814 16.3942 33.5636 15.6325 32.8199C14.8707 32.0762 14.4427 31.0675 14.4427 30.0158ZM23.4694 39.269H19.8587C19.6193 39.269 19.3897 39.1762 19.2205 39.0109C19.0512 38.8456 18.9561 38.6215 18.9561 38.3878C18.9561 38.154 19.0512 37.9299 19.2205 37.7646C19.3897 37.5993 19.6193 37.5065 19.8587 37.5065H23.4694C23.7088 37.5065 23.9384 37.5993 24.1077 37.7646C24.277 37.9299 24.3721 38.154 24.3721 38.3878C24.3721 38.6215 24.277 38.8456 24.1077 39.0109C23.9384 39.1762 23.7088 39.269 23.4694 39.269ZM28.8855 30.0158C28.8855 30.5366 28.7804 31.0522 28.5763 31.5334C28.3721 32.0145 28.0729 32.4517 27.6957 32.8199C27.3185 33.1882 26.8707 33.4803 26.3779 33.6796C25.8851 33.8789 25.3569 33.9814 24.8234 33.9814C24.4643 33.9814 24.1199 33.8422 23.866 33.5943C23.6121 33.3464 23.4694 33.0101 23.4694 32.6596V32.2189C23.4694 31.1672 23.8974 30.1585 24.6592 29.4148C25.421 28.6711 26.4541 28.2532 27.5315 28.2532C27.8906 28.2532 28.235 28.3925 28.4889 28.6404C28.7428 28.8883 28.8855 29.2246 28.8855 29.5751V30.0158Z" fill="white"/>
<path fill-rule="evenodd" clip-rule="evenodd" d="M3.61072 11.8507C3.61072 6.02301 8.70798 2.92212 14.9958 2.92212H28.3325C34.6203 2.92212 39.7176 6.02301 39.7176 11.8507V13.9611H3.61072V11.8507ZM16.9477 10.6448C16.4087 10.6448 15.9718 11.0497 15.9718 11.5493C15.9718 12.0488 16.4087 12.4537 16.9477 12.4537H26.381C26.9199 12.4537 27.3569 12.0488 27.3569 11.5493C27.3569 11.0497 26.9199 10.6448 26.381 10.6448H16.9477Z" fill="white"/>
<path d="M35.0061 16.1188C35.0454 15.9604 35.2789 15.9604 35.3161 16.1188L35.7901 18.1383C35.8076 18.2127 35.8791 18.263 35.9579 18.2565L38.0995 18.0797C38.2674 18.0658 38.3382 18.2802 38.1935 18.3642L36.3471 19.4355C36.2791 19.475 36.2512 19.5564 36.2815 19.6268L37.1048 21.537C37.1693 21.6868 36.9795 21.8193 36.8529 21.7129L35.2377 20.3554C35.1782 20.3055 35.0895 20.3055 35.0294 20.3554L33.3966 21.7129C33.2685 21.8193 33.0804 21.6868 33.1469 21.537L33.9951 19.6268C34.0263 19.5564 33.9994 19.475 33.9319 19.4355L32.0995 18.3642C31.9559 18.2802 32.0294 18.0658 32.1972 18.0797L34.3365 18.2565C34.4152 18.263 34.4874 18.2127 34.5058 18.1383L35.0061 16.1188Z" fill="white"/>
</svg>
