<svg width="20" height="20" viewBox="0 0 20 20" fill="none" xmlns="http://www.w3.org/2000/svg">
<path d="M7.5 17.5H18.75C19.0952 17.5 19.375 17.2201 19.375 16.875C19.375 16.5298 19.0952 16.25 18.75 16.25H7.5C7.15482 16.25 6.875 16.5298 6.875 16.875C6.875 17.2201 7.15482 17.5 7.5 17.5Z" fill="#808080"/>
<path fill-rule="evenodd" clip-rule="evenodd" d="M1.25 3.99222V8.10103C1.25 8.10103 1.24856 9.15363 1.88509 9.99145C1.88509 9.99145 2.52193 10.8297 3.53659 11.1102L17.3313 14.9768C17.6637 15.0699 18.0086 14.876 18.1018 14.5437C18.1172 14.4888 18.125 14.432 18.125 14.375V11.5859C18.125 11.5859 18.1268 10.5342 17.4899 9.696C17.4899 9.696 16.8531 8.85777 15.8384 8.57726L12.2901 7.59161L9.91765 3.43989C9.84136 3.30638 9.71852 3.20568 9.57264 3.15705L8.51796 2.80549C8.51796 2.80549 8.22997 2.71074 7.93283 2.75697C7.93283 2.75697 7.63568 2.80321 7.39208 2.97953C7.39208 2.97953 7.14848 3.15585 7.01173 3.42367C7.01173 3.42367 6.87498 3.6915 6.875 3.99222V6.02486L5.43092 5.57358L4.30147 3.45586C4.22614 3.31462 4.0995 3.20767 3.94764 3.15705L2.89296 2.80549C2.89296 2.80549 2.60497 2.71074 2.30783 2.75697C2.30783 2.75697 2.01068 2.80321 1.76708 2.97953C1.76708 2.97953 1.52348 3.15585 1.38673 3.42367C1.38673 3.42367 1.24998 3.6915 1.25 3.99222ZM2.5 8.10258C2.5 8.10258 2.49895 8.73316 2.88041 9.23526C2.88041 9.23526 3.26188 9.73737 3.86966 9.90539L16.875 13.5507V11.5859C16.875 11.5859 16.8761 10.9543 16.4946 10.4522C16.4946 10.4522 16.1131 9.95009 15.5053 9.78207L11.7077 8.72718C11.549 8.68308 11.4141 8.5781 11.3323 8.43506L8.95082 4.26739L8.125 3.99211V6.87498C8.125 7.22016 7.84518 7.49998 7.5 7.49998C7.43678 7.49998 7.37392 7.49039 7.31358 7.47153L4.81358 6.69028C4.6569 6.64132 4.52578 6.53268 4.44853 6.38785L3.31585 4.26407L2.5 3.99212L2.5 8.10258Z" fill="#808080"/>
</svg>
