<svg width="20" height="20" viewBox="0 0 20 20" fill="none" xmlns="http://www.w3.org/2000/svg">
<path d="M1.87501 17.5H13.125C13.4702 17.5 13.75 17.2202 13.75 16.875C13.75 16.5298 13.4702 16.25 13.125 16.25H1.87501C1.52984 16.25 1.25001 16.5298 1.25001 16.875C1.25001 17.2202 1.52984 17.5 1.87501 17.5Z" fill="#808080"/>
<path fill-rule="evenodd" clip-rule="evenodd" d="M0.893144 11.425C0.893144 11.425 0.662217 11.2092 0.561637 10.9094C0.561637 10.9094 0.46088 10.6092 0.515244 10.2972C0.515244 10.2972 0.569608 9.98519 0.765976 9.73671C0.765976 9.73671 0.962345 9.48823 1.25334 9.36324L2.56631 8.80053C2.72353 8.73315 2.9015 8.73315 3.05871 8.80053L4.96015 9.61544L6.12642 8.94899L4.37122 7.37103C4.37122 7.37103 4.13326 7.1569 4.02748 6.85506C4.02748 6.85506 3.9217 6.55322 3.9739 6.23766C3.9739 6.23766 4.0261 5.92211 4.22344 5.67041C4.22344 5.67041 4.42078 5.4187 4.71476 5.29272L6.00297 4.73839C6.14387 4.67777 6.30214 4.67107 6.44766 4.71957L10.8657 6.19224L14.0895 4.29713C14.0895 4.29713 15.0849 3.71082 16.2229 3.91342C16.2229 3.91342 17.3608 4.11602 18.093 5.0103L19.5468 6.79242C19.6516 6.92086 19.7011 7.08567 19.6843 7.25058C19.6676 7.41549 19.586 7.56701 19.4576 7.67179C19.4321 7.69258 19.405 7.71132 19.3766 7.72785L7.54846 14.6029C7.54846 14.6029 6.6538 15.1244 5.62404 15.0078C5.62404 15.0078 4.59427 14.8913 3.8382 14.1825L0.893144 11.425ZM4.69308 13.2706L1.74751 10.5125L1.74669 10.5118L2.81251 10.055L4.75381 10.887C4.93397 10.9642 5.13992 10.9524 5.3101 10.8552L7.4976 9.60515C7.7973 9.43389 7.90142 9.05211 7.73017 8.75241C7.69708 8.69452 7.65495 8.64229 7.60536 8.59771L5.20714 6.44166L6.2783 5.98074L10.7399 7.46793C10.9111 7.525 11.0986 7.50527 11.2542 7.4138L14.723 5.37474C14.723 5.37474 15.321 5.02251 16.0037 5.14407C16.0037 5.14407 16.6865 5.26563 17.1258 5.8022L18.1153 7.01514L6.92031 13.5221C6.92031 13.5221 6.38244 13.8357 5.76459 13.7658C5.76459 13.7658 5.14673 13.6958 4.69308 13.2706Z" fill="#808080"/>
</svg>
