<svg width="21" height="21" viewBox="0 0 21 21" fill="none" xmlns="http://www.w3.org/2000/svg">
<path d="M11.4633 4.59118C11.4679 4.24603 11.1918 3.96254 10.8466 3.95798C10.5015 3.95343 10.218 4.22953 10.2134 4.57468L10.1474 9.57424L5.14787 9.50825C4.80272 9.50369 4.51923 9.7798 4.51467 10.1249C4.51012 10.4701 4.78622 10.7536 5.13137 10.7581L10.1309 10.8241L10.0649 15.8237C10.0604 16.1688 10.3365 16.4523 10.6816 16.4569C11.0268 16.4614 11.3103 16.1853 11.3148 15.8402L11.3808 10.8406L16.3804 10.9066C16.7255 10.9112 17.009 10.6351 17.0136 10.2899C17.0181 9.94478 16.742 9.66129 16.3969 9.65674L11.3973 9.59074L11.4633 4.59118Z" fill="black"/>
</svg>
